<mxfile host="app.diagrams.net" modified="2024-05-22T10:04:28.920Z" agent="Mozilla/5.0 (Macintosh; Intel Mac OS X 10_15_7) AppleWebKit/537.36 (KHTML, like Gecko) Chrome/124.0.0.0 Safari/537.36" etag="bDCQH_gEFEg26hrfoHfD" version="24.4.4" type="github">
  <diagram id="C5RBs43oDa-KdzZeNtuy" name="Page-1">
    <mxGraphModel dx="1071" dy="822" grid="1" gridSize="10" guides="1" tooltips="1" connect="1" arrows="1" fold="1" page="1" pageScale="1" pageWidth="827" pageHeight="1169" math="0" shadow="0">
      <root>
        <mxCell id="WIyWlLk6GJQsqaUBKTNV-0" />
        <mxCell id="WIyWlLk6GJQsqaUBKTNV-1" parent="WIyWlLk6GJQsqaUBKTNV-0" />
        <mxCell id="WkpLsQ_SdEsy-XqjTtvQ-4" style="edgeStyle=orthogonalEdgeStyle;rounded=0;orthogonalLoop=1;jettySize=auto;html=1;exitX=0.5;exitY=1;exitDx=0;exitDy=0;entryX=0.5;entryY=0;entryDx=0;entryDy=0;" edge="1" parent="WIyWlLk6GJQsqaUBKTNV-1" source="WkpLsQ_SdEsy-XqjTtvQ-0" target="WkpLsQ_SdEsy-XqjTtvQ-1">
          <mxGeometry relative="1" as="geometry" />
        </mxCell>
        <mxCell id="WkpLsQ_SdEsy-XqjTtvQ-0" value="My Blog Website" style="ellipse;whiteSpace=wrap;html=1;fontStyle=1" vertex="1" parent="WIyWlLk6GJQsqaUBKTNV-1">
          <mxGeometry x="310" y="80" width="120" height="80" as="geometry" />
        </mxCell>
        <mxCell id="WkpLsQ_SdEsy-XqjTtvQ-1" value="Home Page&lt;div&gt;(Showing recent blog post)&lt;/div&gt;" style="rounded=1;whiteSpace=wrap;html=1;fontStyle=1" vertex="1" parent="WIyWlLk6GJQsqaUBKTNV-1">
          <mxGeometry x="275" y="220" width="190" height="70" as="geometry" />
        </mxCell>
        <mxCell id="WkpLsQ_SdEsy-XqjTtvQ-8" style="edgeStyle=orthogonalEdgeStyle;rounded=0;orthogonalLoop=1;jettySize=auto;html=1;exitX=0;exitY=0.5;exitDx=0;exitDy=0;fontStyle=1" edge="1" parent="WIyWlLk6GJQsqaUBKTNV-1" source="WkpLsQ_SdEsy-XqjTtvQ-6">
          <mxGeometry relative="1" as="geometry">
            <mxPoint x="170" y="560" as="targetPoint" />
          </mxGeometry>
        </mxCell>
        <mxCell id="WkpLsQ_SdEsy-XqjTtvQ-9" style="edgeStyle=orthogonalEdgeStyle;rounded=0;orthogonalLoop=1;jettySize=auto;html=1;exitX=1;exitY=0.5;exitDx=0;exitDy=0;fontStyle=1" edge="1" parent="WIyWlLk6GJQsqaUBKTNV-1" source="WkpLsQ_SdEsy-XqjTtvQ-6">
          <mxGeometry relative="1" as="geometry">
            <mxPoint x="570" y="560" as="targetPoint" />
          </mxGeometry>
        </mxCell>
        <mxCell id="WkpLsQ_SdEsy-XqjTtvQ-6" value="User Logged In?" style="rhombus;whiteSpace=wrap;html=1;fontStyle=1" vertex="1" parent="WIyWlLk6GJQsqaUBKTNV-1">
          <mxGeometry x="290" y="350" width="160" height="120" as="geometry" />
        </mxCell>
        <mxCell id="WkpLsQ_SdEsy-XqjTtvQ-7" style="edgeStyle=orthogonalEdgeStyle;rounded=0;orthogonalLoop=1;jettySize=auto;html=1;exitX=0.5;exitY=1;exitDx=0;exitDy=0;entryX=0.5;entryY=0;entryDx=0;entryDy=0;" edge="1" parent="WIyWlLk6GJQsqaUBKTNV-1" source="WkpLsQ_SdEsy-XqjTtvQ-1" target="WkpLsQ_SdEsy-XqjTtvQ-6">
          <mxGeometry relative="1" as="geometry" />
        </mxCell>
        <mxCell id="WkpLsQ_SdEsy-XqjTtvQ-10" value="YES" style="text;html=1;align=center;verticalAlign=middle;resizable=0;points=[];autosize=1;strokeColor=none;fillColor=none;" vertex="1" parent="WIyWlLk6GJQsqaUBKTNV-1">
          <mxGeometry x="195" y="388" width="50" height="30" as="geometry" />
        </mxCell>
        <mxCell id="WkpLsQ_SdEsy-XqjTtvQ-11" value="NO" style="text;html=1;align=center;verticalAlign=middle;resizable=0;points=[];autosize=1;strokeColor=none;fillColor=none;" vertex="1" parent="WIyWlLk6GJQsqaUBKTNV-1">
          <mxGeometry x="490" y="388" width="40" height="30" as="geometry" />
        </mxCell>
      </root>
    </mxGraphModel>
  </diagram>
</mxfile>
